<svg xmlns="http://www.w3.org/2000/svg" width="49" height="49" fill="none" viewBox="0 0 49 49">
    <mask id="n4m3p79epa" fill="#fff">
        <path fill-rule="evenodd" d="M36.418 36.502l.042-.042c6.712-6.712 6.712-17.595 0-24.307s-17.595-6.712-24.307 0-6.712 17.595 0 24.307l12.153 12.153 12.112-12.111z" clip-rule="evenodd"/>
    </mask>
    <path fill="#FB8F78" fill-rule="evenodd" d="M36.418 36.502l.042-.042c6.712-6.712 6.712-17.595 0-24.307s-17.595-6.712-24.307 0-6.712 17.595 0 24.307l12.153 12.153 12.112-12.111z" clip-rule="evenodd"/>
    <path fill="#E3684E" d="M36.418 36.502l-.705-.71-.002.002.707.708zm-24.265-.042l.707.707.708-.707-.708-.707-.707.707zm0 0l-.707-.707-.707.707.707.707.707-.707zm12.153 12.153l-.707.707.707.707.708-.707-.708-.707zm11.447-12.86l-.04.039 1.41 1.419.044-.044-1.414-1.414zm0-22.893c6.321 6.322 6.321 16.571 0 22.893l1.414 1.414c7.103-7.103 7.103-18.618 0-25.72l-1.414 1.413zm-22.892 0c6.321-6.321 16.57-6.321 22.892 0l1.414-1.414c-7.103-7.102-18.618-7.102-25.72 0l1.414 1.414zm0 22.893c-6.322-6.322-6.322-16.571 0-22.893l-1.415-1.414c-7.102 7.103-7.102 18.618 0 25.72l1.414-1.413zm0 1.414l-1.415-1.414 1.414 1.414zm12.153 10.739L12.86 35.753l-1.414 1.414L23.6 49.32l1.415-1.414zM35.71 35.794L23.599 47.906l1.415 1.414L37.125 37.21l-1.414-1.415z" mask="url(#n4m3p79epa)"/>
    <circle cx="24" cy="24" r="8" fill="#FFFBF3"/>
</svg>
